<?xml version="1.0" encoding="UTF-8" standalone="no"?>
<svg
   width="16"
   height="16"
   fill="currentColor"
   class="bi bi-cloud-moon-fill"
   viewBox="0 0 16 16"
   version="1.1"
   id="svg182"
   sodipodi:docname="cloud-moon-fill.svg"
   inkscape:version="1.2.2 (b0a8486541, 2022-12-01)"
   xmlns:inkscape="http://www.inkscape.org/namespaces/inkscape"
   xmlns:sodipodi="http://sodipodi.sourceforge.net/DTD/sodipodi-0.dtd"
   xmlns="http://www.w3.org/2000/svg"
   xmlns:svg="http://www.w3.org/2000/svg">
  <defs
     id="defs186" />
  <sodipodi:namedview
     id="namedview184"
     pagecolor="#ffffff"
     bordercolor="#666666"
     borderopacity="1.0"
     inkscape:showpageshadow="2"
     inkscape:pageopacity="0.0"
     inkscape:pagecheckerboard="0"
     inkscape:deskcolor="#d1d1d1"
     showgrid="false"
     inkscape:zoom="54.4375"
     inkscape:cx="7.7795637"
     inkscape:cy="8.1102181"
     inkscape:window-width="812"
     inkscape:window-height="1062"
     inkscape:window-x="0"
     inkscape:window-y="0"
     inkscape:window-maximized="1"
     inkscape:current-layer="svg182" />
  <path
     d="M11.473 11a4.5 4.5 0 0 0-8.72-.99A3 3 0 0 0 3 16h8.5a2.5 2.5 0 0 0 0-5h-.027z"
     id="path178"
     style="fill:#0b9bd7;fill-opacity:1" />
  <path
     d="M11.286 1.778a.5.5 0 0 0-.565-.755 4.595 4.595 0 0 0-3.18 5.003 5.46 5.46 0 0 1 1.055.209A3.603 3.603 0 0 1 9.83 2.617a4.593 4.593 0 0 0 4.31 5.744 3.576 3.576 0 0 1-2.241.634c.162.317.295.652.394 1a4.59 4.59 0 0 0 3.624-2.04.5.5 0 0 0-.565-.755 3.593 3.593 0 0 1-4.065-5.422z"
     id="path180"
     style="fill:#0b9bd7;fill-opacity:1" />
</svg>
